<?xml version="1.0" standalone="no"?>
<!DOCTYPE svg PUBLIC "-//W3C//DTD SVG 20010904//EN"
 "http://www.w3.org/TR/2001/REC-SVG-20010904/DTD/svg10.dtd">
<svg version="1.0" xmlns="http://www.w3.org/2000/svg"
 width="924.000000pt" height="703.000000pt" viewBox="0 0 924.000000 703.000000"
 preserveAspectRatio="xMidYMid meet">

<g transform="translate(0.000000,703.000000) scale(0.100000,-0.100000)"
fill="#000000" stroke="none">
<path d="M7430 6370 c-102 -10 -197 -19 -212 -19 -16 -1 -28 -5 -28 -11 0 -6
32 -10 75 -10 168 0 411 -39 570 -92 325 -108 494 -320 495 -619 1 -541 -558
-1269 -1532 -1995 -1244 -928 -2961 -1638 -4278 -1769 -197 -20 -572 -23 -715
-5 -319 38 -553 128 -697 271 -115 113 -168 240 -168 407 0 368 267 829 770
1332 107 108 255 247 328 309 72 63 132 116 132 118 0 7 -191 -120 -340 -226
-763 -543 -1372 -1210 -1579 -1726 -75 -188 -102 -421 -66 -574 37 -156 168
-320 329 -410 233 -132 558 -191 1044 -191 l274 0 -195 -203 c-357 -372 -447
-473 -447 -502 0 -20 46 -33 200 -59 264 -44 378 -51 835 -51 326 1 478 5 630
18 1526 135 3107 618 4415 1347 645 360 1313 840 1650 1185 l75 77 -100 -53
c-55 -29 -165 -88 -245 -132 -191 -105 -616 -316 -810 -401 -941 -415 -1925
-682 -2930 -793 -199 -22 -787 -25 -925 -5 -110 17 -129 22 -119 32 5 5 167
71 359 148 450 179 628 258 1020 452 1974 977 3553 2364 3771 3315 26 112 26
300 0 375 -53 159 -158 269 -331 351 -94 44 -187 71 -345 100 -170 31 -648 36
-910 9z"/>
</g>
</svg>
